grf
version=1
nRows=54
nColumns=19
inDegrees=yes
endheader
time	ground_force_1_vx	ground_force_1_vy	ground_force_1_vz	ground_force_1_px	ground_force_1_py	ground_force_1_pz	ground_moment_1_mx	ground_moment_1_my	ground_moment_1_mz	ground_force_2_vx	ground_force_2_vy	ground_force_2_vz	ground_force_2_px	ground_force_2_py	ground_force_2_pz	ground_moment_2_mx	ground_moment_2_my	ground_moment_2_mz
0.866000	7.372227	414.849413	-62.338582	0.178407	0.000000	-1.021009	0.000000	3.060540	0.000000	-6.070812	449.495149	63.792732	0.213733	0.000000	-1.441785	0.000000	-3.653731	-0.000000
0.867000	7.378895	414.955895	-62.387828	0.180453	0.000000	-1.021544	0.000000	3.058866	0.000000	-6.080917	449.648946	63.823670	0.214743	0.000000	-1.443443	0.000000	-3.648129	-0.000000
0.868000	7.383911	415.055917	-62.437917	0.177676	0.000000	-1.015597	0.000000	3.057128	0.000000	-6.091633	449.798511	63.856668	0.214433	0.000000	-1.440406	0.000000	-3.642829	-0.000000
0.869000	7.387394	415.147746	-62.487946	0.179550	0.000000	-1.022345	0.000000	3.055391	0.000000	-6.102884	449.940446	63.891287	0.212748	0.000000	-1.439992	0.000000	-3.637975	-0.000000
0.870000	7.389433	415.230653	-62.537065	0.174895	0.000000	-1.023170	0.000000	3.053717	0.000000	-6.114631	450.071539	63.927040	0.213644	0.000000	-1.439743	0.000000	-3.633691	-0.000000
0.871000	7.390037	415.305003	-62.584460	0.180362	0.000000	-1.019716	0.000000	3.052157	0.000000	-6.127017	450.189234	63.963355	0.215248	0.000000	-1.441067	0.000000	-3.630061	-0.000000
0.872000	7.389078	415.372014	-62.629361	0.179018	0.000000	-1.019595	0.000000	3.050753	0.000000	-6.140425	450.291651	63.999584	0.216052	0.000000	-1.442020	0.000000	-3.627118	-0.000000
0.873000	7.386321	415.433291	-62.671096	0.177876	0.000000	-1.018911	0.000000	3.049538	0.000000	-6.155353	450.377267	64.035053	0.211777	0.000000	-1.438941	0.000000	-3.624863	-0.000000
0.874000	7.381502	415.490525	-62.709128	0.179500	0.000000	-1.019052	0.000000	3.048547	0.000000	-6.172298	450.444710	64.069138	0.215856	0.000000	-1.442348	0.000000	-3.623293	-0.000000
0.875000	7.374442	415.545424	-62.743053	0.182462	0.000000	-1.028588	0.000000	3.047816	0.000000	-6.191709	450.492654	64.101350	0.217417	0.000000	-1.439419	0.000000	-3.622402	-0.000000
0.876000	7.365120	415.599306	-62.772686	0.181155	0.000000	-1.014547	0.000000	3.047380	0.000000	-6.213888	450.519709	64.131415	0.216886	0.000000	-1.438041	0.000000	-3.622134	-0.000000
0.877000	7.353644	415.652554	-62.798143	0.178115	0.000000	-1.020296	0.000000	3.047277	0.000000	-6.238891	450.524706	64.159307	0.213122	0.000000	-1.442083	0.000000	-3.622361	-0.000000
0.878000	7.340153	415.704799	-62.819707	0.176058	0.000000	-1.014693	0.000000	3.047538	0.000000	-6.266574	450.507226	64.185197	0.214448	0.000000	-1.440585	0.000000	-3.622920	-0.000000
0.879000	7.324787	415.755653	-62.837573	0.177751	0.000000	-1.020190	0.000000	3.048181	0.000000	-6.296722	450.467820	64.209333	0.210921	0.000000	-1.439797	0.000000	-3.623661	-0.000000
0.880000	7.307700	415.804917	-62.851749	0.180206	0.000000	-1.022702	0.000000	3.049214	0.000000	-6.329085	450.408194	64.231961	0.216342	0.000000	-1.443265	0.000000	-3.624483	-0.000000
0.881000	7.289050	415.852121	-62.862147	0.177589	0.000000	-1.019336	0.000000	3.050634	0.000000	-6.363400	450.331285	64.253259	0.215570	0.000000	-1.440992	0.000000	-3.625314	-0.000000
0.882000	7.268980	415.896245	-62.868700	0.181805	0.000000	-1.015860	0.000000	3.052430	0.000000	-6.399448	450.240772	64.273314	0.214941	0.000000	-1.442035	0.000000	-3.626080	-0.000000
0.883000	7.247617	415.935683	-62.871457	0.179428	0.000000	-1.021204	0.000000	3.054579	0.000000	-6.437058	450.140513	64.292161	0.216468	0.000000	-1.442514	0.000000	-3.626691	-0.000000
0.884000	7.225078	415.968363	-62.870599	0.179764	0.000000	-1.018538	0.000000	3.057038	0.000000	-6.476035	450.034450	64.309836	0.216312	0.000000	-1.442171	0.000000	-3.627061	-0.000000
0.885000	7.201507	415.992293	-62.866356	0.178141	0.000000	-1.020310	0.000000	3.059754	0.000000	-6.516167	449.926641	64.326383	0.213913	0.000000	-1.440143	0.000000	-3.627118	-0.000000
0.886000	7.177114	416.006124	-62.858926	0.177429	0.000000	-1.020164	0.000000	3.062670	0.000000	-6.557256	449.820956	64.341866	0.217724	0.000000	-1.444457	0.000000	-3.626800	-0.000000
0.887000	7.152181	416.009271	-62.848472	0.180235	0.000000	-1.018558	0.000000	3.065734	0.000000	-6.599096	449.720526	64.356365	0.215903	0.000000	-1.441729	0.000000	-3.626059	-0.000000
0.888000	7.127035	416.001938	-62.835161	0.179171	0.000000	-1.019332	0.000000	3.068888	0.000000	-6.641425	449.627419	64.369957	0.212044	0.000000	-1.439542	0.000000	-3.624852	-0.000000
0.889000	7.102027	415.985027	-62.819196	0.178340	0.000000	-1.022810	0.000000	3.072067	0.000000	-6.683914	449.542564	64.382693	0.215671	0.000000	-1.442800	0.000000	-3.623153	-0.000000
0.890000	7.077512	415.959520	-62.800827	0.177972	0.000000	-1.015796	0.000000	3.075192	0.000000	-6.726226	449.466054	64.394565	0.216197	0.000000	-1.442413	0.000000	-3.620958	-0.000000
0.891000	7.053822	415.925736	-62.780342	0.179098	0.000000	-1.022402	0.000000	3.078178	0.000000	-6.768069	449.397993	64.405512	0.214478	0.000000	-1.443740	-0.000000	-3.618279	-0.000000
0.892000	7.031218	415.883161	-62.758092	0.176980	0.000000	-1.027878	0.000000	3.080951	0.000000	-6.809204	449.339128	64.415449	0.216250	0.000000	-1.443097	-0.000000	-3.615138	-0.000000
0.893000	7.009792	415.830697	-62.734464	0.178372	0.000000	-1.020111	0.000000	3.083474	0.000000	-6.849404	449.290731	64.424306	0.212251	0.000000	-1.436523	-0.000000	-3.611571	-0.000000
0.894000	6.989432	415.766960	-62.709869	0.179251	0.000000	-1.019976	0.000000	3.085745	0.000000	-6.888421	449.254017	64.432056	0.216625	0.000000	-1.443357	-0.000000	-3.607642	-0.000000
0.895000	6.969926	415.690766	-62.684729	0.179249	0.000000	-1.021687	0.000000	3.087785	0.000000	-6.925980	449.229450	64.438724	0.213837	0.000000	-1.432838	-0.000000	-3.603431	-0.000000
0.896000	6.951127	415.601842	-62.659467	0.178719	0.000000	-1.020403	0.000000	3.089617	0.000000	-6.961749	449.216159	64.444358	0.216632	0.000000	-1.444810	-0.000000	-3.599044	-0.000000
0.897000	6.932989	415.501179	-62.634511	0.179760	0.000000	-1.022121	0.000000	3.091252	0.000000	-6.995349	449.212123	64.448985	0.217530	0.000000	-1.442630	-0.000000	-3.594597	-0.000000
0.898000	6.915515	415.390679	-62.610346	0.180068	0.000000	-1.017816	0.000000	3.092683	0.000000	-7.026467	449.215275	64.452579	0.214441	0.000000	-1.446780	-0.000000	-3.590182	-0.000000
0.899000	6.898663	415.272615	-62.587506	0.173785	0.000000	-1.026294	0.000000	3.093889	0.000000	-7.054928	449.224321	64.455073	0.215377	0.000000	-1.440649	-0.000000	-3.585845	-0.000000
0.900000	6.882317	415.149050	-62.566532	0.179473	0.000000	-1.020026	0.000000	3.094851	0.000000	-7.080670	449.238391	64.456417	0.216039	0.000000	-1.441615	-0.000000	-3.581603	-0.000000
0.901000	6.866357	415.021329	-62.547889	0.180282	0.000000	-1.018837	0.000000	3.095567	0.000000	-7.103696	449.256392	64.456609	0.215671	0.000000	-1.443977	-0.000000	-3.577479	-0.000000
0.902000	6.850670	414.889898	-62.531864	0.177669	0.000000	-1.026379	0.000000	3.096040	0.000000	-7.124024	449.277115	64.455724	0.215506	0.000000	-1.443854	-0.000000	-3.573502	-0.000000
0.903000	6.835102	414.754258	-62.518514	0.179691	0.000000	-1.021248	0.000000	3.096284	0.000000	-7.141616	449.299840	64.453931	0.214765	0.000000	-1.441562	-0.000000	-3.569712	-0.000000
0.904000	6.819464	414.613268	-62.507708	0.180226	0.000000	-1.019149	0.000000	3.096305	0.000000	-7.156364	449.324426	64.451461	0.216031	0.000000	-1.442793	-0.000000	-3.566161	-0.000000
0.905000	6.803597	414.466062	-62.499178	0.180304	0.000000	-1.018630	0.000000	3.096099	0.000000	-7.168148	449.350679	64.448587	0.218027	0.000000	-1.443255	-0.000000	-3.562904	-0.000000
0.906000	6.787402	414.312787	-62.492592	0.180476	0.000000	-1.022874	0.000000	3.095643	0.000000	-7.176907	449.377696	64.445667	0.215809	0.000000	-1.441802	-0.000000	-3.559993	-0.000000
0.907000	6.770820	414.154785	-62.487601	0.175058	0.000000	-1.022955	0.000000	3.094900	0.000000	-7.182672	449.403671	64.443135	0.215431	0.000000	-1.441696	-0.000000	-3.557470	-0.000000
0.908000	6.753824	413.994661	-62.483804	0.179668	0.000000	-1.022073	0.000000	3.093818	0.000000	-7.185568	449.426244	64.441409	0.215975	0.000000	-1.441316	-0.000000	-3.555365	-0.000000
0.909000	6.736431	413.836194	-62.480761	0.178582	0.000000	-1.020014	0.000000	3.092340	0.000000	-7.185813	449.443157	64.440818	0.212335	0.000000	-1.445585	-0.000000	-3.553704	-0.000000
0.910000	6.718729	413.683891	-62.478064	0.179426	0.000000	-1.020258	0.000000	3.090407	0.000000	-7.183719	449.452954	64.441583	0.215615	0.000000	-1.444024	-0.000000	-3.552511	-0.000000
0.911000	6.700834	413.542283	-62.475452	0.174358	0.000000	-1.025545	0.000000	3.087958	0.000000	-7.179667	449.455418	64.443804	0.214844	0.000000	-1.441893	-0.000000	-3.551822	-0.000000
0.912000	6.682818	413.414896	-62.472859	0.180299	0.000000	-1.021700	0.000000	3.084945	0.000000	-7.174040	449.451276	64.447407	0.219794	0.000000	-1.436803	-0.000000	-3.551665	-0.000000
0.913000	6.664712	413.303419	-62.470336	0.179350	0.000000	-1.021745	0.000000	3.081353	0.000000	-7.167144	449.441423	64.452123	0.219691	0.000000	-1.446947	-0.000000	-3.552034	-0.000000
0.914000	6.646592	413.207894	-62.467930	0.181499	0.000000	-1.020122	0.000000	3.077190	0.000000	-7.159201	449.426904	64.457565	0.217056	0.000000	-1.443256	-0.000000	-3.552865	-0.000000
0.915000	6.628609	413.127289	-62.465637	0.178400	0.000000	-1.021876	0.000000	3.072466	0.000000	-7.150399	449.409547	64.463324	0.217112	0.000000	-1.439911	-0.000000	-3.554045	-0.000000
0.916000	6.610943	413.059636	-62.463417	0.173988	0.000000	-1.024652	0.000000	3.067192	0.000000	-7.140902	449.391777	64.468991	0.217029	0.000000	-1.443243	-0.000000	-3.555450	-0.000000
0.917000	6.593715	413.002123	-62.461241	0.179773	0.000000	-1.022874	0.000000	3.061397	0.000000	-7.130806	449.375742	64.474184	0.213059	0.000000	-1.438824	-0.000000	-3.556988	-0.000000
0.918000	6.576928	412.951676	-62.459137	0.180467	0.000000	-1.017082	0.000000	3.055156	0.000000	-7.120097	449.363082	64.478573	0.217497	0.000000	-1.443406	-0.000000	-3.558615	-0.000000
0.919000	6.560503	412.905739	-62.457173	0.179115	0.000000	-1.018872	0.000000	3.048574	0.000000	-7.108689	449.355225	64.481872	0.217200	0.000000	-1.440150	-0.000000	-3.560325	-0.000000
